<?xml version="1.0" encoding="UTF-8" standalone="no"?>
<svg width="400px" height="150px" viewBox="0 0 400 150" version="1.1" xmlns="http://www.w3.org/2000/svg" xmlns:xlink="http://www.w3.org/1999/xlink">
    <!-- Generator: Sketch 45.1 (43504) - http://www.bohemiancoding.com/sketch -->
    <title>B&amp;&amp;B-17-BRAND_LOGO_400x150_Lost_Ink</title>
    <desc>Created with Sketch.</desc>
    <defs>
        <polygon id="path-1" points="0.26992126 0.618393797 37.4749606 0.618393797 37.4749606 40.7250221 0.26992126 40.7250221"></polygon>
        <polygon id="path-3" points="0.313398504 40.0984833 29.9860787 40.0984833 29.9860787 0.0697337686 0.313398504 0.0697337686"></polygon>
        <polygon id="path-5" points="0 40.7250221 319.67748 40.7250221 319.67748 0.618393797 0 0.618393797"></polygon>
    </defs>
    <g id="Page-1" stroke="none" stroke-width="1" fill="none" fill-rule="evenodd">
        <g id="B&amp;&amp;B-17-BRAND_LOGO_400x150_Lost_Ink">
            <g id="Page-1" transform="translate(40.000000, 54.000000)">
                <polygon id="Fill-1" fill="#1D1D1B" points="0 1.69761273 0 39.8938992 24.6153846 39.8938992 24.6153846 35.3442607 5.23346311 35.3442607 5.23346311 1.69761273"></polygon>
                <g id="Group-14">
                    <g id="Group-4" transform="translate(39.055118, 0.000000)">
                        <mask id="mask-2" fill="white">
                            <use xlink:href="#path-1"></use>
                        </mask>
                        <g id="Clip-3"></g>
                        <path d="M29.1222047,31.2758145 C31.1568504,28.0259578 32.1748031,24.2886538 32.1748031,20.0639027 C32.1748031,15.5985606 31.0012598,12.003481 28.6541732,9.27929027 C26.3070866,6.55447302 23.0982677,5.19237766 19.0283465,5.19237766 C15.0793701,5.19237766 11.8573228,6.54194224 9.36346457,9.24044486 C6.86897638,11.9389475 5.62173228,15.9168423 5.62173228,21.176009 C5.62173228,25.3832171 6.69133858,28.9306798 8.83055118,31.8190237 C10.9697638,34.7073675 14.4381102,36.1509129 19.2362205,36.1509129 C23.791811,36.1509129 27.0869291,34.5262978 29.1222047,31.2758145 M33.6815748,7.078886 C36.2107087,10.4383871 37.4749606,14.7370698 37.4749606,19.9736811 C37.4749606,25.6419776 36.0286614,30.3541759 33.1366929,34.1096495 C29.7414173,38.5198561 24.8998425,40.7252727 18.6125984,40.7252727 C12.7411024,40.7252727 8.12503937,38.7955332 4.76440945,34.9366807 C1.76787402,31.2150403 0.26992126,26.5116135 0.26992126,20.8270269 C0.26992126,15.693168 1.5511811,11.2998779 4.11496063,7.64715669 C7.40566929,2.96127299 12.2730709,0.618017874 18.7165354,0.618017874 C25.4541732,0.618017874 30.4425197,2.77205827 33.6815748,7.078886" id="Fill-2" fill="#1D1D1B" mask="url(#mask-2)"></path>
                    </g>
                    <g id="Group-7" transform="translate(92.598425, 0.626539)">
                        <mask id="mask-4" fill="white">
                            <use xlink:href="#path-3"></use>
                        </mask>
                        <g id="Clip-6"></g>
                        <path d="M5.17348031,26.7383579 C5.29064567,28.8923983 5.78261417,30.6404415 6.65001575,31.9843672 C8.30166929,34.4999205 11.2131654,35.7573839 15.3845039,35.7573839 C17.2528504,35.7573839 18.9548976,35.4817068 20.4900157,34.9303527 C23.4600945,33.862104 24.9454488,31.9499076 24.9454488,29.1931369 C24.9454488,27.1261854 24.3161575,25.6531927 23.0575748,24.7741587 C21.7819843,23.9132944 19.7857638,23.1633275 17.0670236,22.5261375 L12.0585197,21.3632815 C8.78607874,20.6051695 6.47111811,19.7699933 5.11174803,18.8564997 C2.76214173,17.2719831 1.5879685,14.9024134 1.5879685,11.7502966 C1.5879685,8.33879287 2.74261417,5.53941751 5.05190551,3.35091747 C7.36056693,1.16367052 10.6311181,0.0697337686 14.8616693,0.0697337686 C18.7552126,0.0697337686 22.0629291,1.03021775 24.7854488,2.95055918 C27.5073386,4.87215368 28.8685984,7.94282035 28.8685984,12.1631857 L24.0100157,12.1631857 C23.7605669,10.1306938 23.2295433,8.57123877 22.415685,7.48607356 C20.9045039,5.50495787 18.3388346,4.51440003 14.7186772,4.51440003 C11.7958425,4.51440003 9.69505512,5.15158999 8.41631496,6.42659645 C7.1375748,7.70160291 6.49883465,9.18274064 6.49883465,10.8712627 C6.49883465,12.7320829 7.25348031,14.0929252 8.7640315,14.9544161 C9.75426772,15.5057702 11.9948976,16.1949629 15.4859213,17.0219941 L20.6714331,18.2362263 C23.1722205,18.8220401 25.1022992,19.6233832 26.4610394,20.6396292 C28.8106457,22.4139871 29.9860787,24.9896881 29.9860787,28.3661057 C29.9860787,32.570181 28.4862362,35.5763142 25.4884409,37.3851317 C22.4893858,39.1939492 19.0052913,40.0986713 15.0361575,40.0986713 C10.4074961,40.0986713 6.78418898,38.8925841 4.16623622,36.4804097 C1.5463937,34.0864049 0.263244094,30.8384278 0.314897638,26.7383579 L5.17348031,26.7383579 Z" id="Fill-5" fill="#1D1D1B" mask="url(#mask-4)"></path>
                    </g>
                    <polygon id="Fill-8" fill="#1D1D1B" points="169.339339 1.65199486 169.339339 6.17435193 156.478236 6.17435193 156.478236 39.6139808 151.256189 39.6139808 151.256189 6.17435193 138.395087 6.17435193 138.395087 1.65199486"></polygon>
                    <mask id="mask-6" fill="white">
                        <use xlink:href="#path-5"></use>
                    </mask>
                    <g id="Clip-11"></g>
                    <polygon id="Fill-10" fill="#1D1D1B" mask="url(#mask-6)" points="212.522835 39.6141688 217.745512 39.6141688 217.745512 1.65218282 212.522835 1.65218282"></polygon>
                    <polygon id="Fill-12" fill="#1D1D1B" mask="url(#mask-6)" points="237.84422 1.65199486 243.934929 1.65199486 262.968 32.3242019 262.968 1.65199486 267.904693 1.65199486 267.904693 39.6139808 262.096189 39.6139808 242.780283 8.9787396 242.780283 39.6139808 237.84422 39.6139808"></polygon>
                    <polygon id="Fill-13" fill="#1D1D1B" mask="url(#mask-6)" points="287.977071 1.65199486 293.017071 1.65199486 293.017071 20.2332561 312.111874 1.65199486 319.339591 1.65199486 303.032189 16.9727482 319.677228 39.6139808 312.911874 39.6139808 299.238173 20.5383805 293.017071 26.3827344 293.017071 39.6139808 287.977071 39.6139808"></polygon>
                </g>
            </g>
        </g>
    </g>
</svg>